<?xml version="1.0" encoding="UTF-8" standalone="no"?>
<!-- Created with Inkscape (http://www.inkscape.org/) -->

<svg
   version="1.1"
   id="svg2"
   width="4000"
   height="2666.6667"
   viewBox="0 0 4000 2666.6667"
   sodipodi:docname="Abstract_Black_and_White_Grid_Pattern.eps"
   xmlns:inkscape="http://www.inkscape.org/namespaces/inkscape"
   xmlns:sodipodi="http://sodipodi.sourceforge.net/DTD/sodipodi-0.dtd"
   xmlns="http://www.w3.org/2000/svg"
   xmlns:svg="http://www.w3.org/2000/svg">
  <defs
     id="defs6" />
  <sodipodi:namedview
     id="namedview4"
     pagecolor="#ffffff"
     bordercolor="#000000"
     borderopacity="0.25"
     inkscape:showpageshadow="2"
     inkscape:pageopacity="0.0"
     inkscape:pagecheckerboard="0"
     inkscape:deskcolor="#d1d1d1" />
  <g
     id="g8"
     inkscape:groupmode="layer"
     inkscape:label="ink_ext_XXXXXX"
     transform="matrix(1.3333333,0,0,-1.3333333,0,2666.6667)">
    <g
       id="g10"
       transform="scale(0.1)">
      <path
         d="M 30000,0 H 0 V 20000 H 30000 V 0"
         style="fill:#ffffff;fill-opacity:1;fill-rule:nonzero;stroke:none"
         id="path12" />
      <path
         d="M 43.8828,43.8008 H 29956.1 V 19956.2 H 43.8828 Z M 30000,0 H 0 V 20000 H 30000 V 0"
         style="fill:#000000;fill-opacity:1;fill-rule:nonzero;stroke:none"
         id="path14" />
      <path
         d="M 29978.1,997.801 H 21.9375 V 1041.7 H 29978.1 v -43.899"
         style="fill:#000000;fill-opacity:1;fill-rule:nonzero;stroke:none"
         id="path16" />
      <path
         d="M 29978.1,1995.6 H 21.9375 v 43.9 H 29978.1 v -43.9"
         style="fill:#000000;fill-opacity:1;fill-rule:nonzero;stroke:none"
         id="path18" />
      <path
         d="M 29978.1,2993.4 H 21.9375 v 43.9 H 29978.1 v -43.9"
         style="fill:#000000;fill-opacity:1;fill-rule:nonzero;stroke:none"
         id="path20" />
      <path
         d="M 29978.1,3991.2 H 21.9375 v 43.9 H 29978.1 v -43.9"
         style="fill:#000000;fill-opacity:1;fill-rule:nonzero;stroke:none"
         id="path22" />
      <path
         d="M 29978.1,4989 H 21.9375 v 43.9 H 29978.1 V 4989"
         style="fill:#000000;fill-opacity:1;fill-rule:nonzero;stroke:none"
         id="path24" />
      <path
         d="M 29978.1,5986.8 H 21.9375 v 43.9 H 29978.1 v -43.9"
         style="fill:#000000;fill-opacity:1;fill-rule:nonzero;stroke:none"
         id="path26" />
      <path
         d="M 29978.1,6984.7 H 21.9375 v 43.8 H 29978.1 v -43.8"
         style="fill:#000000;fill-opacity:1;fill-rule:nonzero;stroke:none"
         id="path28" />
      <path
         d="M 29978.1,7982.5 H 21.9375 v 43.8 H 29978.1 v -43.8"
         style="fill:#000000;fill-opacity:1;fill-rule:nonzero;stroke:none"
         id="path30" />
      <path
         d="M 29978.1,8980.3 H 21.9375 v 43.8 H 29978.1 v -43.8"
         style="fill:#000000;fill-opacity:1;fill-rule:nonzero;stroke:none"
         id="path32" />
      <path
         d="M 29978.1,9978.1 H 21.9375 v 43.8 H 29978.1 v -43.8"
         style="fill:#000000;fill-opacity:1;fill-rule:nonzero;stroke:none"
         id="path34" />
      <path
         d="M 29978.1,10975.9 H 21.9375 v 43.8 H 29978.1 v -43.8"
         style="fill:#000000;fill-opacity:1;fill-rule:nonzero;stroke:none"
         id="path36" />
      <path
         d="M 29978.1,11973.7 H 21.9375 v 43.8 H 29978.1 v -43.8"
         style="fill:#000000;fill-opacity:1;fill-rule:nonzero;stroke:none"
         id="path38" />
      <path
         d="M 29978.1,12971.5 H 21.9375 v 43.8 H 29978.1 v -43.8"
         style="fill:#000000;fill-opacity:1;fill-rule:nonzero;stroke:none"
         id="path40" />
      <path
         d="M 29978.1,13969.3 H 21.9375 v 43.9 H 29978.1 v -43.9"
         style="fill:#000000;fill-opacity:1;fill-rule:nonzero;stroke:none"
         id="path42" />
      <path
         d="M 29978.1,14967.1 H 21.9375 v 43.9 H 29978.1 v -43.9"
         style="fill:#000000;fill-opacity:1;fill-rule:nonzero;stroke:none"
         id="path44" />
      <path
         d="M 29978.1,15964.9 H 21.9375 v 43.9 H 29978.1 v -43.9"
         style="fill:#000000;fill-opacity:1;fill-rule:nonzero;stroke:none"
         id="path46" />
      <path
         d="M 29978.1,16962.7 H 21.9375 v 43.9 H 29978.1 v -43.9"
         style="fill:#000000;fill-opacity:1;fill-rule:nonzero;stroke:none"
         id="path48" />
      <path
         d="M 29978.1,17960.5 H 21.9375 v 43.9 H 29978.1 v -43.9"
         style="fill:#000000;fill-opacity:1;fill-rule:nonzero;stroke:none"
         id="path50" />
      <path
         d="M 29978.1,18958.3 H 21.9375 v 43.9 H 29978.1 v -43.9"
         style="fill:#000000;fill-opacity:1;fill-rule:nonzero;stroke:none"
         id="path52" />
      <path
         d="m 29001.5,21.8984 h -43.9 V 19978.1 h 43.9 V 21.8984"
         style="fill:#000000;fill-opacity:1;fill-rule:nonzero;stroke:none"
         id="path54" />
      <path
         d="M 28002.9,21.8984 H 27959 V 19978.1 h 43.9 V 21.8984"
         style="fill:#000000;fill-opacity:1;fill-rule:nonzero;stroke:none"
         id="path56" />
      <path
         d="m 27004.4,21.8984 h -43.9 V 19978.1 h 43.9 V 21.8984"
         style="fill:#000000;fill-opacity:1;fill-rule:nonzero;stroke:none"
         id="path58" />
      <path
         d="M 26005.8,21.8984 H 25962 V 19978.1 h 43.8 V 21.8984"
         style="fill:#000000;fill-opacity:1;fill-rule:nonzero;stroke:none"
         id="path60" />
      <path
         d="m 25007.3,21.8984 h -43.9 V 19978.1 h 43.9 V 21.8984"
         style="fill:#000000;fill-opacity:1;fill-rule:nonzero;stroke:none"
         id="path62" />
      <path
         d="m 24008.8,21.8984 h -43.9 V 19978.1 h 43.9 V 21.8984"
         style="fill:#000000;fill-opacity:1;fill-rule:nonzero;stroke:none"
         id="path64" />
      <path
         d="m 23010.2,21.8984 h -43.8 V 19978.1 h 43.8 V 21.8984"
         style="fill:#000000;fill-opacity:1;fill-rule:nonzero;stroke:none"
         id="path66" />
      <path
         d="m 22011.7,21.8984 h -43.9 V 19978.1 h 43.9 V 21.8984"
         style="fill:#000000;fill-opacity:1;fill-rule:nonzero;stroke:none"
         id="path68" />
      <path
         d="m 21013.2,21.8984 h -43.9 V 19978.1 h 43.9 V 21.8984"
         style="fill:#000000;fill-opacity:1;fill-rule:nonzero;stroke:none"
         id="path70" />
      <path
         d="m 20014.6,21.8984 h -43.9 V 19978.1 h 43.9 V 21.8984"
         style="fill:#000000;fill-opacity:1;fill-rule:nonzero;stroke:none"
         id="path72" />
      <path
         d="m 19016.1,21.8984 h -43.9 V 19978.1 h 43.9 V 21.8984"
         style="fill:#000000;fill-opacity:1;fill-rule:nonzero;stroke:none"
         id="path74" />
      <path
         d="m 18017.5,21.8984 h -43.8 V 19978.1 h 43.8 V 21.8984"
         style="fill:#000000;fill-opacity:1;fill-rule:nonzero;stroke:none"
         id="path76" />
      <path
         d="m 17019,21.8984 h -43.9 V 19978.1 h 43.9 V 21.8984"
         style="fill:#000000;fill-opacity:1;fill-rule:nonzero;stroke:none"
         id="path78" />
      <path
         d="m 16020.5,21.8984 h -43.9 V 19978.1 h 43.9 V 21.8984"
         style="fill:#000000;fill-opacity:1;fill-rule:nonzero;stroke:none"
         id="path80" />
      <path
         d="m 15021.9,21.8984 h -43.8 V 19978.1 h 43.8 V 21.8984"
         style="fill:#000000;fill-opacity:1;fill-rule:nonzero;stroke:none"
         id="path82" />
      <path
         d="m 14023.4,21.8984 h -43.9 V 19978.1 h 43.9 V 21.8984"
         style="fill:#000000;fill-opacity:1;fill-rule:nonzero;stroke:none"
         id="path84" />
      <path
         d="M 13024.9,21.8984 H 12981 V 19978.1 h 43.9 V 21.8984"
         style="fill:#000000;fill-opacity:1;fill-rule:nonzero;stroke:none"
         id="path86" />
      <path
         d="m 12026.3,21.8984 h -43.9 V 19978.1 h 43.9 V 21.8984"
         style="fill:#000000;fill-opacity:1;fill-rule:nonzero;stroke:none"
         id="path88" />
      <path
         d="m 11027.8,21.8984 h -43.9 V 19978.1 h 43.9 V 21.8984"
         style="fill:#000000;fill-opacity:1;fill-rule:nonzero;stroke:none"
         id="path90" />
      <path
         d="m 10029.3,21.8984 h -43.93 V 19978.1 h 43.93 V 21.8984"
         style="fill:#000000;fill-opacity:1;fill-rule:nonzero;stroke:none"
         id="path92" />
      <path
         d="m 9030.72,21.8984 h -43.88 V 19978.1 h 43.88 V 21.8984"
         style="fill:#000000;fill-opacity:1;fill-rule:nonzero;stroke:none"
         id="path94" />
      <path
         d="M 8032.18,21.8984 H 7988.3 V 19978.1 h 43.88 V 21.8984"
         style="fill:#000000;fill-opacity:1;fill-rule:nonzero;stroke:none"
         id="path96" />
      <path
         d="m 7033.64,21.8984 h -43.88 V 19978.1 h 43.88 V 21.8984"
         style="fill:#000000;fill-opacity:1;fill-rule:nonzero;stroke:none"
         id="path98" />
      <path
         d="m 6035.1,21.8984 h -43.87 V 19978.1 h 43.87 V 21.8984"
         style="fill:#000000;fill-opacity:1;fill-rule:nonzero;stroke:none"
         id="path100" />
      <path
         d="m 5036.57,21.8984 h -43.88 V 19978.1 h 43.88 V 21.8984"
         style="fill:#000000;fill-opacity:1;fill-rule:nonzero;stroke:none"
         id="path102" />
      <path
         d="m 4038.03,21.8984 h -43.88 V 19978.1 h 43.88 V 21.8984"
         style="fill:#000000;fill-opacity:1;fill-rule:nonzero;stroke:none"
         id="path104" />
      <path
         d="m 3039.49,21.8984 h -43.88 V 19978.1 h 43.88 V 21.8984"
         style="fill:#000000;fill-opacity:1;fill-rule:nonzero;stroke:none"
         id="path106" />
      <path
         d="m 2040.96,21.8984 h -43.88 V 19978.1 h 43.88 V 21.8984"
         style="fill:#000000;fill-opacity:1;fill-rule:nonzero;stroke:none"
         id="path108" />
      <path
         d="M 1042.42,21.8984 H 998.539 V 19978.1 h 43.881 V 21.8984"
         style="fill:#000000;fill-opacity:1;fill-rule:nonzero;stroke:none"
         id="path110" />
    </g>
  </g>
</svg>
