<svg xmlns="http://www.w3.org/2000/svg" width="64" height="64"><path fill="#FFF" d="M37 27h-1q-.4 0-.7.3-.3.3-.3.7l.3.7q.3.3.7.3v.25l-.25.55v-.05L35 30l-.8-.25-.2-.5V24.8q0-.35.25-.6l-.05.1q.35-.3.8-.3.45 0 .75.3v-.05l.25.55q0 .4.3.7l.7.3.7-.3.3-.7q0-1.15-.9-2l-.05-.05Q36.15 22 35 22q-1.25 0-2.1.75l-.05.05q-.85.85-.85 2v4.45q0 1.1.85 1.95l.05.1q.85.7 2.1.7 1.15 0 2.05-.7l.05-.05q.9-.9.9-2V28l-.3-.7q-.3-.3-.7-.3m7-1h-3v-2h3l.7-.3.3-.7-.3-.7q-.3-.3-.7-.3h-4q-.4 0-.7.3-.3.3-.3.7v8q0 .4.3.7.3.3.7.3h4l.7-.3.3-.7-.3-.7q-.3-.3-.7-.3h-3v-2h3l.7-.3.3-.7-.3-.7q-.3-.3-.7-.3M16 8h32q8 0 8 8v32q0 8-8 8H16q-8 0-8-8V16q0-8 8-8m5.1 18H20v-2h1.05l.65.25.3.75-.25.7h-.05l-.25.2-.35.1m0 2 1.25-.3.1-.05.65-.5v-.05q.9-.85.9-2.1t-.9-2.15q-.85-.85-2.05-.85H19q-.4 0-.7.3-.3.3-.3.7v8q0 .4.3.7.3.3.7.3l.7-.3.3-.7v-3h1.1m5.9-3.2.25-.6-.05.1q.35-.3.8-.3.45 0 .75.3v-.05l.25.55V27h-2v-2.2m-2 0V31q0 .4.3.7.3.3.7.3l.7-.3.3-.7v-2h2v2q0 .4.3.7l.7.3q.4 0 .7-.3l.3-.7v-6.2q0-1.15-.9-2l-.05-.05Q29.15 22 28 22q-1.25 0-2.1.75l-.05.05q-.85.85-.85 2M28.1 37H27v-2h1.05l.65.25.3.75-.25.7h-.05l-.25.2-.35.1m0 2 1.25-.3.1-.05.65-.5v-.05q.9-.85.9-2.1t-.9-2.15q-.85-.85-2.05-.85H26q-.4 0-.7.3-.3.3-.3.7v8q0 .4.3.7.3.3.7.3l.7-.3.3-.7v-3h1.1M20 40.2V34l-.3-.7q-.3-.3-.7-.3-.4 0-.7.3-.3.3-.3.7v6.2q0 1.15.85 2l.05.1q.85.7 2.1.7 1.15 0 2.05-.7l.05-.05q.9-.9.9-2.05V34l-.3-.7q-.3-.3-.7-.3-.4 0-.7.3-.3.3-.3.7v6.2l-.25.6v-.05L21 41l-.8-.25-.2-.55"/></svg>